<svg xmlns="http://www.w3.org/2000/svg" version="1.1" xmlns:xlink="http://www.w3.org/1999/xlink" xmlns:svgjs="http://svgjs.dev/svgjs" viewBox="0 0 1920 1080" style="overflow: hidden; height: 85vh;" class="overflow-hidden rounded-md drop-shadow-lg transition duration-300"><rect width="1920" height="1080" fill="#cce3de"/><g clip-path="url(&quot;#SvgjsClipPath1104&quot;)"><g transform="matrix(0.41212314197709443,-1.0736174904717823,1.0736174904717823,0.41212314197709443,-25.109428606042457,1330.3790994049732)"><path d="M0,-1080C6.217701742474394,-979.9525918572945,40.68329990106634,-653.8100426929972,37.306210454846365,-479.715551143767C33.92912100862639,-305.62105959453686,-20.924335610412317,-207.12901896860978,-20.262536677319844,-35.43305070461872C-19.60073774422737,136.26291755937234,43.40236750105746,354.6369252634771,41.277004053401214,550.4602584401794C39.151640605744966,746.2835916168816,-35.16842528256519,966.4622252144217,-33.01471736325732,1139.5069483555947C-30.861009443949452,1312.5516714967678,48.6967986753722,1418.64642201315,54.19925156924842,1588.7285972872176C59.701704463124635,1758.8107725612851,9.033208594874736,2064.7880995478695,0,2160L 1920 2160 L 1920 -1080 Z" fill="url(&quot;#SvgjsLinearGradient1098&quot;)"/><path d="M320,-1080C330.0451045814224,-994.6383517686028,388.47927953150577,-747.6905567019076,380.27062748853416,-567.8301106116169C372.06197544556255,-387.9696645213262,279.7809829177032,-175.96535010885032,270.7480877421705,-0.8373234582559235C261.7151925666378,174.29070319233847,316.1922561530256,297.9270503272593,326.07325643533784,482.93804929194937C335.9542567176501,667.9490482566395,341.68071814379215,930.3348162387286,330.03408943604416,1109.2286703298844C318.38746072829616,1288.12252442104,257.86583242819046,1381.1726188938644,256.19348418884977,1556.3011738388836C254.52113594950907,1731.4297287839029,309.3655806981416,2059.3835289731473,320,2160L 1920 2160 L 1920 -1080 Z" fill="url(&quot;#SvgjsLinearGradient1099&quot;)"/><path d="M640,-1080C650.2239722399976,-994.9142095001977,692.729175473259,-759.5064828723484,701.3438334399852,-569.4852570011863C709.9584914067115,-379.46403113002407,699.077857492496,-131.47793128741705,691.6879478003575,60.12735522697338C684.298038108219,251.7326417413638,668.7484731618574,404.18314942195764,657.0043752871541,580.1464620851564C645.2602774124507,756.1097747483551,632.1361876710047,941.844596978537,621.223360552137,1115.907231206166C610.3105334332694,1289.9698654337951,588.3979726659709,1450.5068059852917,591.527412573948,1624.5222674509307C594.6568524819252,1798.5377289165697,631.9212354289914,2070.7537112418217,640,2160L 1920 2160 L 1920 -1080 Z" fill="url(&quot;#SvgjsLinearGradient1100&quot;)"/><path d="M960,-1080C959.6789644930383,-969.4072045717047,959.0852041793411,-640.4145439605358,958.0737869582297,-416.44322743022826C957.0623697371183,-192.4719108999208,944.9759948768931,50.69540299482881,953.9314966733316,263.82789918184466C962.8869984697701,476.96039536886053,1006.6698612931366,645.5995500201371,1011.8067977368609,862.351749691867C1016.9437341805851,1079.1039493635967,993.3875816251542,1348.0663888275349,984.7531153356774,1564.3410972122238C976.1186490462006,1780.6158055969127,964.1255192226129,2060.7235162020374,960,2160L 1920 2160 L 1920 -1080 Z" fill="url(&quot;#SvgjsLinearGradient1101&quot;)"/><path d="M1280,-1080C1283.1140759973964,-1006.5819881668966,1296.2787822142423,-785.1070013122697,1298.6844559843778,-639.49192900138C1301.0901297545133,-493.8768566904902,1297.1402942629786,-359.24875481259824,1294.4340426208134,-206.3095661346612C1291.7277909786483,-53.37037745672413,1287.9054264714916,120.72452037882235,1282.4469461313865,278.14320306624245C1276.9884657912814,435.5618857536625,1267.1813166067395,569.3240378464598,1261.683160580183,738.2025299898594C1256.1850045536266,907.081022133259,1255.804771162596,1124.6875296526782,1249.458009972048,1291.4141559266402C1243.1112487815003,1458.1407822006022,1218.5122617655716,1593.797980288071,1223.602593436897,1738.5622876336308C1228.6929251082224,1883.3265949791908,1270.6004322394829,2089.760381272272,1280,2160L 1920 2160 L 1920 -1080 Z" fill="url(&quot;#SvgjsLinearGradient1102&quot;)"/><path d="M1600,-1080C1601.1512098319122,-988.50625257523,1615.1820240005459,-713.6237989994336,1606.9072589914726,-531.0375154513799C1598.6324939823994,-348.4512319033263,1542.1167289448451,-160.22872257324855,1550.3514099455613,15.517701288321547C1558.5860909462774,191.26412514989164,1642.3673458981652,356.38944149754525,1656.3153449957692,523.4410277180407C1670.2633440933732,690.4926139385361,1643.4475535657245,844.7907163491735,1634.0394045311855,1017.8272186112943C1624.6312554966464,1190.863720873415,1605.5396848770654,1371.2979110593144,1599.8664507885344,1561.6600412907653C1594.1932167000034,1752.0221715222162,1599.977741798089,2060.276673548461,1600,2160L 1920 2160 L 1920 -1080 Z" fill="url(&quot;#SvgjsLinearGradient1103&quot;)"/></g></g><defs><linearGradient x1="0.1" y1="0" x2="0" y2="1" id="SvgjsLinearGradient1098"><stop stop-color="#cce3de" offset="0"/><stop stop-color="#cce3da" offset="0"/></linearGradient><linearGradient x1="0.1" y1="0" x2="0" y2="1" id="SvgjsLinearGradient1099"><stop stop-color="#d4e7e3" offset="0"/><stop stop-color="#d4e7e0" offset="0.16666666666666666"/></linearGradient><linearGradient x1="0.1" y1="0" x2="0" y2="1" id="SvgjsLinearGradient1100"><stop stop-color="#dbebe8" offset="0"/><stop stop-color="#dbebe5" offset="0.3333333333333333"/></linearGradient><linearGradient x1="0.1" y1="0" x2="0" y2="1" id="SvgjsLinearGradient1101"><stop stop-color="#e3f0ed" offset="0"/><stop stop-color="#e3f0eb" offset="0.5"/></linearGradient><linearGradient x1="0.1" y1="0" x2="0" y2="1" id="SvgjsLinearGradient1102"><stop stop-color="#eaf4f2" offset="0"/><stop stop-color="#eaf4f0" offset="0.6666666666666666"/></linearGradient><linearGradient x1="0.1" y1="0" x2="0" y2="1" id="SvgjsLinearGradient1103"><stop stop-color="#f2f8f7" offset="0"/><stop stop-color="#f2f8f6" offset="0.8333333333333334"/></linearGradient><clipPath id="SvgjsClipPath1104"><rect width="1920" height="1080"/></clipPath></defs></svg>